v -0.0000 0.7819 -0.0768
v -0.6772 -0.3909 -0.0768
v 0.6772 -0.3909 -0.0768
v 0.0000 -0.0000 -1.1777
v -0.2886 -0.1666 1.2750
v 0.0000 0.3333 1.2750
v 0.2886 -0.1666 1.2750
v 1.2327 1.0450 -0.7396
v 1.5214 0.5450 -0.7396
v 1.2327 0.7117 -1.2082
v -1.5214 0.5450 -0.7396
v -1.2327 1.0450 -0.7396
v -1.2327 0.7117 -1.2082
v 0.2886 -1.5901 -0.7396
v -0.2886 -1.5901 -0.7396
v 0.0000 -1.4235 -1.2082
v -0.7170 0.0262 0.0947
v -0.6008 0.3468 0.1367
v -0.3812 0.6078 0.0947
v 0.3358 -0.6341 0.0947
v 0.0000 -0.6937 0.1367
v -0.3358 -0.6341 0.0947
v 0.3812 0.6078 0.0947
v 0.6008 0.3468 0.1367
v 0.7170 0.0262 0.0947
v -0.3812 -0.2201 -1.0717
v -0.6008 -0.3468 -0.8411
v -0.7170 -0.4140 -0.5262
v 0.0000 0.8280 -0.5262
v -0.0000 0.6937 -0.8411
v -0.0000 0.4402 -1.0717
v 0.3812 -0.2201 -1.0717
v 0.6008 -0.3468 -0.8411
v 0.7170 -0.4140 -0.5262
v -0.2910 -0.0339 1.3369
v -0.2358 0.1361 1.3681
v -0.1161 0.2690 1.3369
v 0.1749 -0.2351 1.3369
v 0.0000 -0.2723 1.3681
v -0.1749 -0.2351 1.3369
v 0.1161 0.2690 1.3369
v 0.2358 0.1361 1.3681
v 0.2910 -0.0339 1.3369
v 0.0000 0.6067 0.4218
v 0.0000 0.5027 0.7988
v 0.0000 0.4113 1.0957
v 0.3562 -0.2056 1.0957
v 0.4353 -0.2513 0.7988
v 0.5254 -0.3033 0.4218
v -0.3562 -0.2056 1.0957
v -0.4353 -0.2513 0.7988
v -0.5254 -0.3033 0.4218
v 1.3599 0.9872 -0.6962
v 1.4836 0.8565 -0.6717
v 1.5349 0.6841 -0.6962
v 1.2438 1.0542 -0.8847
v 1.2477 0.9927 -1.0547
v 1.2438 0.8522 -1.1688
v 1.3599 0.6510 -1.1688
v 1.4836 0.5842 -1.0547
v 1.5349 0.5500 -0.8847
v 0.4577 0.2642 -1.1793
v 0.7953 0.4592 -1.2076
v 1.0640 0.6143 -1.2213
v 1.4202 0.4086 -0.6430
v 1.2307 0.2078 -0.5007
v 0.9831 -0.0390 -0.3257
v 0.4577 0.8710 -0.3257
v 0.7953 0.9619 -0.5007
v 1.0640 1.0256 -0.6430
v -1.5349 0.6841 -0.6962
v -1.4836 0.8565 -0.6717
v -1.3599 0.9872 -0.6962
v -1.3599 0.6510 -1.1688
v -1.4836 0.5842 -1.0547
v -1.5349 0.5500 -0.8847
v -1.2438 1.0542 -0.8847
v -1.2477 0.9927 -1.0547
v -1.2438 0.8522 -1.1688
v -0.4577 0.2642 -1.1793
v -0.7953 0.4592 -1.2076
v -1.0640 0.6143 -1.2213
v -1.0640 1.0256 -0.6430
v -0.7953 0.9619 -0.5007
v -0.4577 0.8710 -0.3257
v -0.9831 -0.0390 -0.3257
v -1.2307 0.2078 -0.5007
v -1.4202 0.4086 -0.6430
v 0.1749 -1.6713 -0.6962
v 0.0000 -1.7131 -0.6717
v -0.1749 -1.6713 -0.6962
v -0.1161 -1.5033 -1.1688
v -0.2358 -1.5769 -1.0547
v -0.2910 -1.6043 -0.8847
v 0.1161 -1.5033 -1.1688
v 0.2358 -1.5769 -1.0547
v 0.2910 -1.6043 -0.8847
v 0.5254 -0.8319 -0.3257
v 0.4353 -1.1697 -0.5007
v 0.3562 -1.4342 -0.6430
v 0.0000 -1.2286 -1.2213
v 0.0000 -0.9184 -1.2076
v 0.0000 -0.5285 -1.1793
v -0.3562 -1.4342 -0.6430
v -0.4353 -1.1697 -0.5007
v -0.5254 -0.8319 -0.3257
v 0.5675 -0.0255 0.4480
v 0.4639 0.2678 0.4676
v 0.2616 0.5042 0.4480
v 0.4724 -0.0248 0.8086
v 0.3862 0.2230 0.8184
v 0.2147 0.4215 0.8086
v 0.3895 -0.0183 1.1135
v 0.3220 0.1859 1.1292
v 0.1789 0.3464 1.1135
v 0.9454 -0.1094 -0.5952
v 0.8249 -0.0594 -0.8769
v 0.6395 0.0671 -1.0920
v 1.1919 0.1426 -0.7164
v 1.0853 0.1805 -0.9520
v 0.9342 0.2914 -1.1348
v 1.3973 0.3569 -0.8246
v 1.3174 0.3887 -1.0213
v 1.1867 0.4785 -1.1665
v 0.2616 -0.5874 -1.0920
v 0.4639 -0.6847 -0.8769
v 0.5675 -0.7640 -0.5952
v 0.2147 -0.9547 -1.1348
v 0.3862 -1.0301 -0.9520
v 0.4724 -1.1035 -0.7164
v 0.1789 -1.2670 -1.1665
v 0.3220 -1.3352 -1.0213
v 0.3895 -1.3886 -0.8246
v -0.3779 0.8735 -0.5952
v -0.3609 0.7441 -0.8769
v -0.3779 0.5203 -1.0920
v -0.7194 0.9609 -0.7164
v -0.6990 0.8496 -0.9520
v -0.7194 0.6633 -1.1348
v -1.0078 1.0316 -0.8246
v -0.9953 0.9465 -1.0213
v -1.0078 0.7884 -1.1665
v 0.0000 -0.0000 1.5465
v -0.1569 -0.0905 1.4686
v 0.0000 -0.1273 1.5107
v 0.1569 -0.0905 1.4686
v 0.1102 0.0636 1.5107
v 0.0000 0.1811 1.4686
v -0.1102 0.0636 1.5107
v -0.3058 -0.4787 0.4480
v 0.0000 -0.5357 0.4676
v 0.3058 -0.4787 0.4480
v -0.2577 -0.3967 0.8086
v 0.0000 -0.4460 0.8184
v 0.2577 -0.3967 0.8086
v -0.2106 -0.3281 1.1135
v 0.0000 -0.3719 1.1292
v 0.2106 -0.3281 1.1135
v -0.2616 0.5042 0.4480
v -0.4639 0.2678 0.4676
v -0.5675 -0.0255 0.4480
v -0.2147 0.4215 0.8086
v -0.3862 0.2230 0.8184
v -0.4724 -0.0248 0.8086
v -0.1789 0.3464 1.1135
v -0.3220 0.1859 1.1292
v -0.3895 -0.0183 1.1135
v 1.5505 0.8952 -0.9868
v 1.5916 0.7377 -0.8758
v 1.5581 0.7722 -1.0345
v 1.4347 0.8283 -1.1305
v 1.4478 0.9632 -1.0345
v 1.4347 1.0095 -0.8758
v 1.5581 0.8995 -0.8555
v 0.3779 0.5203 -1.0920
v 0.3609 0.7441 -0.8769
v 0.3779 0.8735 -0.5952
v 0.7194 0.6633 -1.1348
v 0.6990 0.8496 -0.9520
v 0.7194 0.9609 -0.7164
v 1.0078 0.7884 -1.1665
v 0.9953 0.9465 -1.0213
v 1.0078 1.0316 -0.8246
v 0.6395 0.7224 -0.1698
v 0.8249 0.4763 -0.1228
v 0.9454 0.1926 -0.1698
v 0.9342 0.8369 -0.3677
v 1.0853 0.6266 -0.3247
v 1.1919 0.3905 -0.3677
v 1.1867 0.9283 -0.5341
v 1.3174 0.7606 -0.4984
v 1.3973 0.5635 -0.5341
v -1.5505 0.8952 -0.9868
v -1.4347 1.0095 -0.8758
v -1.4478 0.9632 -1.0345
v -1.4347 0.8283 -1.1305
v -1.5581 0.7722 -1.0345
v -1.5916 0.7377 -0.8758
v -1.5581 0.8995 -0.8555
v -0.6395 0.0671 -1.0920
v -0.8249 -0.0594 -0.8769
v -0.9454 -0.1094 -0.5952
v -0.9342 0.2914 -1.1348
v -1.0853 0.1805 -0.9520
v -1.1919 0.1426 -0.7164
v -1.1867 0.4785 -1.1665
v -1.3174 0.3887 -1.0213
v -1.3973 0.3569 -0.8246
v -0.9454 0.1926 -0.1698
v -0.8249 0.4763 -0.1228
v -0.6395 0.7224 -0.1698
v -1.1919 0.3905 -0.3677
v -1.0853 0.6266 -0.3247
v -0.9342 0.8369 -0.3677
v -1.3973 0.5635 -0.5341
v -1.3174 0.7606 -0.4984
v -1.1867 0.9283 -0.5341
v 0.0000 -1.7904 -0.9868
v -0.1569 -1.7472 -0.8758
v -0.1102 -1.7354 -1.0345
v 0.0000 -1.6567 -1.1305
v 0.1102 -1.7354 -1.0345
v 0.1569 -1.7472 -0.8758
v 0.0000 -1.7991 -0.8555
v -0.5675 -0.7640 -0.5952
v -0.4639 -0.6847 -0.8769
v -0.2616 -0.5874 -1.0920
v -0.4724 -1.1035 -0.7164
v -0.3862 -1.0301 -0.9520
v -0.2147 -0.9547 -1.1348
v -0.3895 -1.3886 -0.8246
v -0.3220 -1.3352 -1.0213
v -0.1789 -1.2670 -1.1665
v 0.3058 -0.9151 -0.1698
v 0.0000 -0.9526 -0.1228
v -0.3058 -0.9151 -0.1698
v 0.2577 -1.2275 -0.3677
v 0.0000 -1.2532 -0.3247
v -0.2577 -1.2275 -0.3677
v 0.2106 -1.4919 -0.5341
v 0.0000 -1.5212 -0.4984
v -0.2106 -1.4919 -0.5341

vn 0.8141 0.4700 0.3409
vn 0.9630 0.0697 0.2602
vn 0.9423 0.0515 0.3306
vn 0.5419 0.7991 0.2602
vn 0.8397 0.4848 0.2448
vn 0.9436 0.0503 0.3271
vn 0.5154 0.7920 0.3271
vn 0.8209 0.4739 0.3186
vn 0.8582 -0.0377 0.5118
vn 0.8213 -0.4742 0.3171
vn 0.8164 -0.4714 0.3335
vn 0.7074 0.4084 0.5768
vn 0.5158 0.7903 0.3306
vn 0.3965 0.7621 0.5118
vn 0.0000 0.9484 0.3171
vn 0.0000 0.9602 0.2791
vn 0.0000 0.9426 0.3338
vn 0.0000 0.8627 0.5056
vn 0.3686 0.7415 0.5606
vn 0.7076 0.4085 0.5766
vn 0.8265 -0.0515 0.5606
vn 0.7472 -0.4313 0.5056
vn 0.8163 -0.4713 0.3338
vn 0.8316 -0.4801 0.2791
vn 0.5484 -0.6222 -0.5587
vn 0.6736 -0.7230 -0.1531
vn 0.7262 -0.6687 -0.1594
vn 0.2501 -0.4794 -0.8412
vn 0.4780 -0.6924 -0.5404
vn 0.7241 -0.6715 -0.1572
vn 0.2930 -0.4242 -0.8568
vn 0.5318 -0.6399 -0.5548
vn 0.8581 -0.4954 -0.1352
vn 0.8067 -0.4820 0.3417
vn 0.7059 -0.4075 -0.5792
vn 0.2976 -0.4216 -0.8565
vn 0.3942 -0.2276 -0.8904
vn -0.0161 -0.0093 -0.9998
vn -0.0513 -0.0296 -0.9982
vn -0.0023 -0.0013 -1.0000
vn 0.1605 0.0927 -0.9827
vn 0.4244 -0.1795 -0.8875
vn 0.7047 -0.4096 -0.5793
vn 0.8857 -0.4429 -0.1390
vn 0.9110 -0.3361 0.2388
vn 0.8170 -0.4700 0.3338
vn 0.7827 -0.5076 0.3602
vn 0.8130 -0.1638 -0.5587
vn 0.5402 0.0231 -0.8412
vn 0.5139 -0.0469 -0.8565
vn 0.9630 -0.2219 -0.1531
vn 0.8386 -0.0678 -0.5404
vn 0.5139 -0.0416 -0.8568
vn 0.9436 -0.2913 -0.1572
vn 0.8200 -0.1406 -0.5548
vn 0.0000 0.0186 -0.9998
vn 0.0000 0.0000 -1.0000
vn 0.9422 -0.2946 -0.1594
vn 0.8208 -0.4576 0.3417
vn 0.8309 -0.4240 0.3602
vn 0.8156 -0.4725 0.3338
vn 0.7466 -0.6209 0.2388
vn 0.8264 -0.5455 -0.1390
vn 0.7071 -0.4055 -0.5793
vn 0.3677 -0.2778 -0.8875
vn 0.0000 -0.1853 -0.9827
vn 0.0000 0.0026 -1.0000
vn 0.0000 0.0592 -0.9982
vn 0.2647 0.7860 -0.5587
vn 0.2893 0.9449 -0.1531
vn 0.2159 0.9633 -0.1594
vn 0.2901 0.4563 -0.8412
vn 0.3606 0.7602 -0.5404
vn 0.2195 0.9628 -0.1572
vn 0.2209 0.4658 -0.8568
vn 0.2882 0.7804 -0.5548
vn 0.0000 0.9908 -0.1352
vn 0.0141 0.9397 0.3417
vn 0.0000 0.9427 0.3335
vn 0.0000 0.8151 -0.5792
vn 0.2163 0.4685 -0.8565
vn 0.0000 0.4552 -0.8904
vn 0.0161 -0.0093 -0.9998
vn 0.0513 -0.0296 -0.9982
vn 0.0023 -0.0013 -1.0000
vn -0.1605 0.0927 -0.9827
vn -0.0567 0.4573 -0.8875
vn 0.0023 0.8151 -0.5793
vn -0.0592 0.9885 -0.1390
vn -0.1645 0.9570 0.2388
vn -0.0014 0.9426 0.3338
vn 0.0482 0.9316 0.3602
vn -0.5490 -0.3170 0.7733
vn 0.0000 0.0000 1.0000
vn -0.4415 0.2549 0.8603
vn 0.5490 -0.3170 0.7733
vn 0.0000 -0.5098 0.8603
vn 0.0000 0.6340 0.7733
vn 0.4415 0.2549 0.8603
vn -0.4579 -0.6900 0.5606
vn -0.8265 -0.0515 0.5606
vn -0.7472 -0.4313 0.5056
vn 0.0000 -0.8170 0.5766
vn -0.7076 0.4085 0.5766
vn 0.4579 -0.6900 0.5606
vn -0.3686 0.7415 0.5606
vn 0.0000 -0.9401 0.3409
vn -0.4211 -0.8688 0.2602
vn -0.4266 -0.8418 0.3307
vn 0.4211 -0.8688 0.2602
vn 0.0000 -0.9695 0.2448
vn -0.4282 -0.8424 0.3271
vn 0.4282 -0.8424 0.3271
vn 0.0000 -0.9479 0.3186
vn -0.4617 -0.7244 0.5118
vn -0.8213 -0.4742 0.3171
vn -0.8164 -0.4714 0.3335
vn 0.0000 -0.8169 0.5768
vn 0.4266 -0.8418 0.3306
vn 0.4617 -0.7244 0.5118
vn -0.8163 -0.4713 0.3338
vn -0.8316 -0.4801 0.2791
vn -0.8141 0.4700 0.3409
vn -0.5419 0.7991 0.2602
vn -0.5158 0.7903 0.3307
vn -0.9630 0.0697 0.2602
vn -0.8397 0.4848 0.2448
vn -0.5154 0.7920 0.3271
vn -0.9436 0.0503 0.3271
vn -0.8209 0.4739 0.3186
vn -0.3965 0.7621 0.5118
vn -0.7074 0.4084 0.5768
vn -0.9423 0.0515 0.3306
vn -0.8582 -0.0377 0.5118
vn 0.9975 -0.0579 0.0407
vn 0.8159 0.4710 -0.3353
vn 0.8496 0.4905 0.1938
vn 0.4453 0.2571 -0.8576
vn 0.8482 -0.0200 -0.5292
vn 0.4486 0.8928 0.0407
vn 0.4068 0.7446 -0.5292
vn 0.8856 -0.0164 0.4641
vn 0.7065 0.4079 0.5783
vn 0.0567 0.4573 -0.8875
vn -0.0023 0.8151 -0.5793
vn 0.4286 0.7752 0.4641
vn 0.0592 0.9885 -0.1390
vn 0.1645 0.9570 0.2388
vn -0.2647 0.7860 -0.5587
vn -0.2901 0.4563 -0.8412
vn -0.2163 0.4685 -0.8565
vn -0.2893 0.9449 -0.1531
vn -0.3606 0.7602 -0.5404
vn -0.2209 0.4658 -0.8568
vn -0.2195 0.9628 -0.1572
vn -0.2882 0.7804 -0.5548
vn -0.2159 0.9633 -0.1594
vn -0.0141 0.9397 0.3417
vn -0.0482 0.9316 0.3602
vn 0.0014 0.9426 0.3338
vn 0.5506 0.3179 0.7718
vn 0.2542 0.6316 0.7324
vn 0.3010 0.6653 0.6832
vn 0.6740 -0.0956 0.7324
vn 0.4805 0.2774 0.8319
vn 0.2974 0.6646 0.6854
vn 0.7243 -0.0748 0.6854
vn 0.5341 0.3083 0.7872
vn 0.7267 -0.0720 0.6832
vn -0.4486 0.8928 0.0407
vn -0.8159 0.4710 -0.3353
vn -0.8496 0.4905 0.1938
vn -0.4453 0.2571 -0.8576
vn -0.4068 0.7446 -0.5292
vn -0.9975 -0.0579 0.0407
vn -0.8482 -0.0200 -0.5292
vn -0.4286 0.7752 0.4641
vn -0.7065 0.4079 0.5783
vn -0.4244 -0.1795 -0.8875
vn -0.7047 -0.4096 -0.5793
vn -0.8856 -0.0164 0.4641
vn -0.8857 -0.4429 -0.1390
vn -0.9110 -0.3361 0.2388
vn -0.5484 -0.6222 -0.5587
vn -0.2501 -0.4794 -0.8412
vn -0.2976 -0.4216 -0.8565
vn -0.6736 -0.7230 -0.1531
vn -0.4780 -0.6924 -0.5404
vn -0.2930 -0.4242 -0.8568
vn -0.7241 -0.6715 -0.1572
vn -0.5318 -0.6399 -0.5548
vn -0.3942 -0.2276 -0.8904
vn -0.7059 -0.4075 -0.5792
vn -0.7262 -0.6687 -0.1594
vn -0.8581 -0.4954 -0.1352
vn -0.8067 -0.4820 0.3417
vn -0.7827 -0.5076 0.3602
vn -0.8170 -0.4700 0.3338
vn -0.5506 0.3179 0.7718
vn -0.6740 -0.0956 0.7324
vn -0.7267 -0.0720 0.6832
vn -0.2542 0.6316 0.7324
vn -0.4805 0.2774 0.8319
vn -0.7243 -0.0748 0.6854
vn -0.2974 0.6646 0.6854
vn -0.5341 0.3083 0.7872
vn -0.3010 0.6653 0.6832
vn -0.5489 -0.8349 0.0407
vn 0.0000 -0.9421 -0.3353
vn 0.0000 -0.9810 0.1938
vn 0.0000 -0.5142 -0.8576
vn -0.4414 -0.7246 -0.5292
vn 0.5489 -0.8349 0.0407
vn 0.4414 -0.7246 -0.5292
vn -0.8264 -0.5455 -0.1390
vn -0.4570 -0.7588 0.4641
vn -0.7466 -0.6209 0.2388
vn -0.7071 -0.4055 -0.5793
vn 0.0000 -0.8158 0.5783
vn -0.3677 -0.2778 -0.8875
vn 0.4570 -0.7588 0.4641
vn -0.8130 -0.1638 -0.5587
vn -0.9630 -0.2219 -0.1531
vn -0.9422 -0.2946 -0.1594
vn -0.5402 0.0231 -0.8412
vn -0.8386 -0.0678 -0.5404
vn -0.9436 -0.2913 -0.1572
vn -0.5139 -0.0416 -0.8568
vn -0.8200 -0.1406 -0.5548
vn -0.8208 -0.4576 0.3417
vn -0.5139 -0.0469 -0.8565
vn -0.8156 -0.4725 0.3338
vn -0.8309 -0.4240 0.3602
vn 0.0000 -0.6358 0.7718
vn 0.4198 -0.5359 0.7324
vn 0.4257 -0.5933 0.6832
vn -0.4198 -0.5359 0.7324
vn 0.0000 -0.5549 0.8319
vn 0.4269 -0.5898 0.6854
vn -0.4269 -0.5898 0.6854
vn 0.0000 -0.6167 0.7872
vn -0.4257 -0.5933 0.6832

o Shape

f 108//1 110//2 107//3
f 108//1 112//4 111//5
f 111//5 113//6 110//2
f 111//5 115//7 114//8
f 25//9 49//10 3//11
f 24//12 107//3 25//9
f 24//12 109//13 108//1
f 23//14 44//15 109//13
f 109//13 45//16 112//4
f 112//4 46//17 115//7
f 115//7 6//18 41//19
f 114//8 41//19 42//20
f 114//8 43//21 113//6
f 113//6 7//22 47//23
f 110//2 47//23 48//24
f 107//3 48//24 49//10
f 117//25 119//26 116//27
f 117//25 121//28 120//29
f 120//29 122//30 119//26
f 120//29 124//31 123//32
f 34//33 67//34 3//11
f 33//35 116//27 34//33
f 33//35 118//36 117//25
f 32//37 62//38 118//36
f 118//36 63//39 121//28
f 121//28 64//40 124//31
f 124//31 10//41 59//42
f 123//32 59//42 60//43
f 123//32 61//44 122//30
f 122//30 9//45 65//46
f 119//26 65//46 66//47
f 116//27 66//47 67//34
f 126//48 128//49 125//50
f 126//48 130//51 129//52
f 129//52 131//53 128//49
f 129//52 133//54 132//55
f 32//37 103//56 4//57
f 33//35 125//50 32//37
f 33//35 127//58 126//48
f 34//33 98//59 127//58
f 127//58 99//60 130//51
f 130//51 100//61 133//54
f 133//54 14//62 97//63
f 132//55 97//63 96//64
f 132//55 95//65 131//53
f 131//53 16//66 101//67
f 128//49 101//67 102//68
f 125//50 102//68 103//56
f 135//69 137//70 134//71
f 135//69 139//72 138//73
f 138//73 140//74 137//70
f 138//73 142//75 141//76
f 29//77 85//78 1//79
f 30//80 134//71 29//77
f 30//80 136//81 135//69
f 31//82 80//83 136//81
f 136//81 81//84 139//72
f 139//72 82//85 142//75
f 142//75 13//86 79//87
f 141//76 79//87 78//88
f 141//76 77//89 140//74
f 140//74 12//90 83//91
f 137//70 83//91 84//92
f 134//71 84//92 85//78
f 144//93 143//94 149//95
f 146//96 143//94 145//97
f 148//98 143//94 147//99
f 40//100 35//101 5//102
f 39//103 144//93 40//100
f 144//93 36//104 35//101
f 43//21 38//105 7//22
f 42//20 146//96 43//21
f 146//96 39//103 38//105
f 37//106 41//19 6//18
f 36//104 148//98 37//106
f 148//98 42//20 41//19
f 151//107 153//108 150//109
f 151//107 155//110 154//111
f 154//111 156//112 153//108
f 154//111 158//113 157//114
f 22//115 52//116 2//117
f 21//118 150//109 22//115
f 21//118 152//119 151//107
f 20//120 49//10 152//119
f 152//119 48//24 155//110
f 155//110 47//23 158//113
f 158//113 7//22 38//105
f 157//114 38//105 39//103
f 157//114 40//100 156//112
f 156//112 5//102 50//121
f 153//108 50//121 51//122
f 150//109 51//122 52//116
f 160//123 162//124 159//125
f 160//123 164//126 163//127
f 163//127 165//128 162//124
f 163//127 167//129 166//130
f 19//131 44//15 1//79
f 18//132 159//125 19//131
f 18//132 161//133 160//123
f 17//134 52//116 161//133
f 161//133 51//122 164//126
f 164//126 50//121 167//129
f 167//129 5//102 35//101
f 166//130 35//101 36//104
f 166//130 37//106 165//128
f 165//128 6//18 46//17
f 162//124 46//17 45//16
f 159//125 45//16 44//15
f 169//135 168//136 174//137
f 171//138 168//136 170//139
f 173//140 168//136 172//141
f 61//44 55//142 9//45
f 60//43 169//135 61//44
f 169//135 54//143 55//142
f 58//144 59//42 10//41
f 57//145 171//138 58//144
f 171//138 60//43 59//42
f 53//146 56//147 8//148
f 54//143 173//140 53//146
f 173//140 57//145 56//147
f 176//149 178//150 175//151
f 176//149 180//152 179//153
f 179//153 181//154 178//150
f 179//153 183//155 182//156
f 31//82 62//38 4//57
f 30//80 175//151 31//82
f 30//80 177//157 176//149
f 29//77 68//158 177//157
f 177//157 69//159 180//152
f 180//152 70//160 183//155
f 183//155 8//148 56//147
f 182//156 56//147 57//145
f 182//156 58//144 181//154
f 181//154 10//41 64//40
f 178//150 64//40 63//39
f 175//151 63//39 62//38
f 185//161 187//162 184//163
f 185//161 189//164 188//165
f 188//165 190//166 187//162
f 188//165 192//167 191//168
f 23//14 68//158 1//79
f 24//12 184//163 23//14
f 24//12 186//169 185//161
f 25//9 67//34 186//169
f 186//169 66//47 189//164
f 189//164 65//46 192//167
f 192//167 9//45 55//142
f 191//168 55//142 54//143
f 191//168 53//146 190//166
f 190//166 8//148 70//160
f 187//162 70//160 69//159
f 184//163 69//159 68//158
f 194//170 193//171 199//172
f 196//173 193//171 195//174
f 198//175 193//171 197//176
f 77//89 73//177 12//90
f 78//88 194//170 77//89
f 194//170 72//178 73//177
f 74//179 79//87 13//86
f 75//180 196//173 74//179
f 196//173 78//88 79//87
f 71//181 76//182 11//183
f 72//178 198//175 71//181
f 198//175 75//180 76//182
f 201//184 203//185 200//186
f 201//184 205//187 204//188
f 204//188 206//189 203//185
f 204//188 208//190 207//191
f 26//192 80//83 4//57
f 27//193 200//186 26//192
f 27//193 202//194 201//184
f 28//195 86//196 202//194
f 202//194 87//197 205//187
f 205//187 88//198 208//190
f 208//190 11//183 76//182
f 207//191 76//182 75//180
f 207//191 74//179 206//189
f 206//189 13//86 82//85
f 203//185 82//85 81//84
f 200//186 81//84 80//83
f 210//199 212//200 209//201
f 210//199 214//202 213//203
f 213//203 215//204 212//200
f 213//203 217//205 216//206
f 17//134 86//196 2//117
f 18//132 209//201 17//134
f 18//132 211//207 210//199
f 19//131 85//78 211//207
f 211//207 84//92 214//202
f 214//202 83//91 217//205
f 217//205 12//90 73//177
f 216//206 73//177 72//178
f 216//206 71//181 215//204
f 215//204 11//183 88//198
f 212//200 88//198 87//197
f 209//201 87//197 86//196
f 219//208 218//209 224//210
f 221//211 218//209 220//212
f 223//213 218//209 222//214
f 94//215 91//216 15//217
f 93//218 219//208 94//215
f 219//208 90//219 91//216
f 95//65 92//220 16//66
f 96//64 221//211 95//65
f 221//211 93//218 92//220
f 89//221 97//63 14//62
f 90//219 223//213 89//221
f 223//213 96//64 97//63
f 226//222 228//223 225//224
f 226//222 230//225 229//226
f 229//226 231//227 228//223
f 229//226 233//228 232//229
f 28//195 106//230 2//117
f 27//193 225//224 28//195
f 27//193 227//231 226//222
f 26//192 103//56 227//231
f 227//231 102//68 230//225
f 230//225 101//67 233//228
f 233//228 16//66 92//220
f 232//229 92//220 93//218
f 232//229 94//215 231//227
f 231//227 15//217 104//232
f 228//223 104//232 105//233
f 225//224 105//233 106//230
f 235//234 237//235 234//236
f 235//234 239//237 238//238
f 238//238 240//239 237//235
f 238//238 242//240 241//241
f 20//120 98//59 3//11
f 21//118 234//236 20//120
f 21//118 236//242 235//234
f 22//115 106//230 236//242
f 236//242 105//233 239//237
f 239//237 104//232 242//240
f 242//240 15//217 91//216
f 241//241 91//216 90//219
f 241//241 89//221 240//239
f 240//239 14//62 100//61
f 237//235 100//61 99//60
f 234//236 99//60 98//59
f 108//1 111//5 110//2
f 108//1 109//13 112//4
f 111//5 114//8 113//6
f 111//5 112//4 115//7
f 25//9 107//3 49//10
f 24//12 108//1 107//3
f 24//12 23//14 109//13
f 23//14 1//79 44//15
f 109//13 44//15 45//16
f 112//4 45//16 46//17
f 115//7 46//17 6//18
f 114//8 115//7 41//19
f 114//8 42//20 43//21
f 113//6 43//21 7//22
f 110//2 113//6 47//23
f 107//3 110//2 48//24
f 117//25 120//29 119//26
f 117//25 118//36 121//28
f 120//29 123//32 122//30
f 120//29 121//28 124//31
f 34//33 116//27 67//34
f 33//35 117//25 116//27
f 33//35 32//37 118//36
f 32//37 4//57 62//38
f 118//36 62//38 63//39
f 121//28 63//39 64//40
f 124//31 64//40 10//41
f 123//32 124//31 59//42
f 123//32 60//43 61//44
f 122//30 61//44 9//45
f 119//26 122//30 65//46
f 116//27 119//26 66//47
f 126//48 129//52 128//49
f 126//48 127//58 130//51
f 129//52 132//55 131//53
f 129//52 130//51 133//54
f 32//37 125//50 103//56
f 33//35 126//48 125//50
f 33//35 34//33 127//58
f 34//33 3//11 98//59
f 127//58 98//59 99//60
f 130//51 99//60 100//61
f 133//54 100//61 14//62
f 132//55 133//54 97//63
f 132//55 96//64 95//65
f 131//53 95//65 16//66
f 128//49 131//53 101//67
f 125//50 128//49 102//68
f 135//69 138//73 137//70
f 135//69 136//81 139//72
f 138//73 141//76 140//74
f 138//73 139//72 142//75
f 29//77 134//71 85//78
f 30//80 135//69 134//71
f 30//80 31//82 136//81
f 31//82 4//57 80//83
f 136//81 80//83 81//84
f 139//72 81//84 82//85
f 142//75 82//85 13//86
f 141//76 142//75 79//87
f 141//76 78//88 77//89
f 140//74 77//89 12//90
f 137//70 140//74 83//91
f 134//71 137//70 84//92
f 144//93 145//97 143//94
f 146//96 147//99 143//94
f 148//98 149//95 143//94
f 40//100 144//93 35//101
f 39//103 145//97 144//93
f 144//93 149//95 36//104
f 43//21 146//96 38//105
f 42//20 147//99 146//96
f 146//96 145//97 39//103
f 37//106 148//98 41//19
f 36//104 149//95 148//98
f 148//98 147//99 42//20
f 151//107 154//111 153//108
f 151//107 152//119 155//110
f 154//111 157//114 156//112
f 154//111 155//110 158//113
f 22//115 150//109 52//116
f 21//118 151//107 150//109
f 21//118 20//120 152//119
f 20//120 3//11 49//10
f 152//119 49//10 48//24
f 155//110 48//24 47//23
f 158//113 47//23 7//22
f 157//114 158//113 38//105
f 157//114 39//103 40//100
f 156//112 40//100 5//102
f 153//108 156//112 50//121
f 150//109 153//108 51//122
f 160//123 163//127 162//124
f 160//123 161//133 164//126
f 163//127 166//130 165//128
f 163//127 164//126 167//129
f 19//131 159//125 44//15
f 18//132 160//123 159//125
f 18//132 17//134 161//133
f 17//134 2//117 52//116
f 161//133 52//116 51//122
f 164//126 51//122 50//121
f 167//129 50//121 5//102
f 166//130 167//129 35//101
f 166//130 36//104 37//106
f 165//128 37//106 6//18
f 162//124 165//128 46//17
f 159//125 162//124 45//16
f 169//135 170//139 168//136
f 171//138 172//141 168//136
f 173//140 174//137 168//136
f 61//44 169//135 55//142
f 60//43 170//139 169//135
f 169//135 174//137 54//143
f 58//144 171//138 59//42
f 57//145 172//141 171//138
f 171//138 170//139 60//43
f 53//146 173//140 56//147
f 54//143 174//137 173//140
f 173//140 172//141 57//145
f 176//149 179//153 178//150
f 176//149 177//157 180//152
f 179//153 182//156 181//154
f 179//153 180//152 183//155
f 31//82 175//151 62//38
f 30//80 176//149 175//151
f 30//80 29//77 177//157
f 29//77 1//79 68//158
f 177//157 68//158 69//159
f 180//152 69//159 70//160
f 183//155 70//160 8//148
f 182//156 183//155 56//147
f 182//156 57//145 58//144
f 181//154 58//144 10//41
f 178//150 181//154 64//40
f 175//151 178//150 63//39
f 185//161 188//165 187//162
f 185//161 186//169 189//164
f 188//165 191//168 190//166
f 188//165 189//164 192//167
f 23//14 184//163 68//158
f 24//12 185//161 184//163
f 24//12 25//9 186//169
f 25//9 3//11 67//34
f 186//169 67//34 66//47
f 189//164 66//47 65//46
f 192//167 65//46 9//45
f 191//168 192//167 55//142
f 191//168 54//143 53//146
f 190//166 53//146 8//148
f 187//162 190//166 70//160
f 184//163 187//162 69//159
f 194//170 195//174 193//171
f 196//173 197//176 193//171
f 198//175 199//172 193//171
f 77//89 194//170 73//177
f 78//88 195//174 194//170
f 194//170 199//172 72//178
f 74//179 196//173 79//87
f 75//180 197//176 196//173
f 196//173 195//174 78//88
f 71//181 198//175 76//182
f 72//178 199//172 198//175
f 198//175 197//176 75//180
f 201//184 204//188 203//185
f 201//184 202//194 205//187
f 204//188 207//191 206//189
f 204//188 205//187 208//190
f 26//192 200//186 80//83
f 27//193 201//184 200//186
f 27//193 28//195 202//194
f 28//195 2//117 86//196
f 202//194 86//196 87//197
f 205//187 87//197 88//198
f 208//190 88//198 11//183
f 207//191 208//190 76//182
f 207//191 75//180 74//179
f 206//189 74//179 13//86
f 203//185 206//189 82//85
f 200//186 203//185 81//84
f 210//199 213//203 212//200
f 210//199 211//207 214//202
f 213//203 216//206 215//204
f 213//203 214//202 217//205
f 17//134 209//201 86//196
f 18//132 210//199 209//201
f 18//132 19//131 211//207
f 19//131 1//79 85//78
f 211//207 85//78 84//92
f 214//202 84//92 83//91
f 217//205 83//91 12//90
f 216//206 217//205 73//177
f 216//206 72//178 71//181
f 215//204 71//181 11//183
f 212//200 215//204 88//198
f 209//201 212//200 87//197
f 219//208 220//212 218//209
f 221//211 222//214 218//209
f 223//213 224//210 218//209
f 94//215 219//208 91//216
f 93//218 220//212 219//208
f 219//208 224//210 90//219
f 95//65 221//211 92//220
f 96//64 222//214 221//211
f 221//211 220//212 93//218
f 89//221 223//213 97//63
f 90//219 224//210 223//213
f 223//213 222//214 96//64
f 226//222 229//226 228//223
f 226//222 227//231 230//225
f 229//226 232//229 231//227
f 229//226 230//225 233//228
f 28//195 225//224 106//230
f 27//193 226//222 225//224
f 27//193 26//192 227//231
f 26//192 4//57 103//56
f 227//231 103//56 102//68
f 230//225 102//68 101//67
f 233//228 101//67 16//66
f 232//229 233//228 92//220
f 232//229 93//218 94//215
f 231//227 94//215 15//217
f 228//223 231//227 104//232
f 225//224 228//223 105//233
f 235//234 238//238 237//235
f 235//234 236//242 239//237
f 238//238 241//241 240//239
f 238//238 239//237 242//240
f 20//120 234//236 98//59
f 21//118 235//234 234//236
f 21//118 22//115 236//242
f 22//115 2//117 106//230
f 236//242 106//230 105//233
f 239//237 105//233 104//232
f 242//240 104//232 15//217
f 241//241 242//240 91//216
f 241//241 90//219 89//221
f 240//239 89//221 14//62
f 237//235 240//239 100//61
f 234//236 237//235 99//60
